<svg width="26" height="26" viewBox="0 0 26 26" fill="none" xmlns="http://www.w3.org/2000/svg">
<path d="M21.8208 20.291L18.3075 16.7777C19.3723 15.3838 19.9562 13.6931 19.9565 11.909C19.9565 9.75897 19.1191 7.73751 17.5986 6.21724C16.0783 4.69698 14.0571 3.85962 11.9068 3.85962C9.75685 3.85962 7.73538 4.69698 6.21512 6.21724C3.07673 9.35589 3.07673 14.4626 6.21512 17.6007C7.73538 19.1212 9.75685 19.9586 11.9068 19.9586C13.6909 19.9584 15.3817 19.3744 16.7756 18.3096L20.2889 21.8229C20.5003 22.0345 20.7777 22.1403 21.0549 22.1403C21.3321 22.1403 21.6095 22.0345 21.8208 21.8229C22.244 21.4 22.244 20.714 21.8208 20.291ZM7.74702 16.0688C5.4534 13.7752 5.45366 10.043 7.74702 7.74914C8.85812 6.6383 10.3355 6.02628 11.9068 6.02628C13.4784 6.02628 14.9556 6.6383 16.0667 7.74914C17.1778 8.86025 17.7898 10.3377 17.7898 11.909C17.7898 13.4805 17.1778 14.9577 16.0667 16.0688C14.9556 17.1799 13.4784 17.7919 11.9068 17.7919C10.3355 17.7919 8.85812 17.1799 7.74702 16.0688Z" fill="#ADBFD4"/>
</svg>
