<svg width="29" height="28" viewBox="0 0 29 28" fill="none" xmlns="http://www.w3.org/2000/svg">
<path d="M14.4996 4.34174L13.738 3.55887C13.738 3.55886 13.738 3.55886 13.738 3.55886C10.2923 0.0169406 4.09792 1.27837 1.86981 5.62859L1.86955 5.62909C0.795052 7.73084 0.616583 10.6633 2.43744 14.2574L2.43751 14.2575C4.18152 17.6981 7.75815 21.7254 14.0758 26.0591L14.5 26.3501L14.9243 26.0591C21.2421 21.7252 24.8166 17.6981 26.5624 14.2578L26.5626 14.2572C28.3832 10.6619 28.2071 7.73099 27.1302 5.62857C24.9022 1.2787 18.708 0.0148721 15.262 3.55705L15.2617 3.55741L14.4996 4.34174ZM13.6731 3.06042L13.6742 3.06144C13.7733 3.15228 13.8692 3.245 13.9606 3.33962L14.5025 3.90054L15.0418 3.33711C15.1305 3.24444 15.2228 3.15528 15.3185 3.06985L15.3186 3.06991L15.3272 3.062C19.0378 -0.356277 25.3249 1.13685 27.4936 5.65927C28.5567 7.87622 28.6543 10.9026 26.7669 14.5399C24.9089 18.1205 21.1301 22.2761 14.5 26.7237C7.86983 22.2765 4.09101 18.1214 2.23288 14.5411C0.34533 10.9042 0.442779 7.878 1.50577 5.66106C3.67422 1.13861 9.96159 -0.355476 13.6731 3.06042Z" fill="#172542" stroke="#172542" stroke-width="1.5"/>
<path d="M2.96242 6.23162L2.96215 6.23212C1.96462 8.10522 1.80857 10.7074 3.47824 13.8711L3.47832 13.8712C5.0746 16.8943 8.33958 20.4183 14.0871 24.2031L14.4996 24.4747L14.9121 24.2031C20.6598 20.4181 23.9229 16.8943 25.5207 13.8715L25.521 13.8709C27.1904 10.7062 27.0366 8.10536 26.0368 6.2316C24.9953 4.27969 23.0506 3.06316 21.0094 2.70465C18.9667 2.34586 16.7431 2.8332 15.1543 4.40097L15.1539 4.40131L14.4993 5.0482L13.8449 4.40255C13.8449 4.40254 13.8449 4.40254 13.8449 4.40254C12.2562 2.83486 10.0327 2.34706 7.98994 2.70541C5.94874 3.06349 4.00389 4.27962 2.96242 6.23162ZM13.713 4.12542L13.7141 4.12641C13.8032 4.2048 13.8892 4.28461 13.971 4.36587L14.5021 4.8936L15.0307 4.36341C15.1098 4.28407 15.1922 4.20767 15.2777 4.13441L15.2778 4.13447L15.2865 4.12677C18.6375 1.16331 24.3124 2.47396 26.2562 6.36519C27.2029 8.26042 27.2991 10.8596 25.5971 14.0083C23.9212 17.1085 20.5068 20.7201 14.4996 24.5926C8.49238 20.7205 5.07785 17.1093 3.4019 14.0093C1.69979 10.8609 1.79583 8.26196 2.74245 6.36675C4.68606 2.47549 10.3611 1.164 13.713 4.12542Z" fill="#172542" stroke="#172542" stroke-width="1.5"/>
</svg>
